<svg xmlns="http://www.w3.org/2000/svg" viewBox="0 0 400 800" width="400" height="800" preserveAspectRatio="xMidYMid meet" style="width: 100%; height: 100%;"><defs><clipPath id="animationMask_QZNpzOUTcZ"><rect width="400" height="800" x="0" y="0"></rect></clipPath><clipPath id="cp_j7npOPKZ"><path d="M0,0 L400,0 L400,800 L0,800z"></path></clipPath><clipPath id="cp_brhFGQpw"><path d="M0,0 L400,0 L400,800 L0,800z"></path></clipPath><clipPath id="cp_UmqyUBDR"><path d="M0,0 L400,0 L400,800 L0,800z"></path></clipPath><clipPath id="cp_89634xM8"><path d="M0,0 L400,0 L400,800 L0,800z"></path></clipPath><clipPath id="cp_hxh4KIJ8"><path d="M0,0 L400,0 L400,800 L0,800z"></path></clipPath></defs><g clip-path="url(#animationMask_QZNpzOUTcZ)"><g clip-path="url(#cp_j7npOPKZ)" transform="matrix(1,0,0,1,0,0)" opacity="1"><g clip-path="url(#cp_brhFGQpw)" transform="matrix(1,0,0,1,0,0)" opacity="1"><g class="head" transform="matrix(1,0,0,1,200,400)" opacity="1" style="user-select: none;"><g opacity="1" transform="matrix(1,0,0,1,-15.5,-301)"><path fill="rgb(66,0,255)" fill-opacity="1" d="M0 0 M50.5,-46 C50.5,-46 50.5,46 50.5,46 C50.5,46 -50.5,46 -50.5,46 C-50.5,46 -50.5,-46 -50.5,-46 C-50.5,-46 50.5,-46 50.5,-46z"></path></g></g><g class="neck" transform="matrix(1,0,0,1,200,400)" opacity="1" style="user-select: none;"><g opacity="1" transform="matrix(1,0,0,1,-13,-239)"><path fill="rgb(66,0,255)" fill-opacity="1" d="M0 0 M13,-23 C13,-23 13,23 13,23 C13,23 -13,23 -13,23 C-13,23 -13,-23 -13,-23 C-13,-23 13,-23 13,-23z"></path></g></g></g><g clip-path="url(#cp_UmqyUBDR)" transform="matrix(1,0,0,1,0,0)" opacity="1"><g class="arm" transform="matrix(1,0,0,1,200,400)" opacity="1" style="user-select: none;"><g opacity="1" transform="matrix(-0.6743,0.7384,-0.7384,-0.6743,-102,-160.5)"><path fill="rgb(66,0,255)" fill-opacity="1" d="M0 0 M53,-15.5 C53,-15.5 53,15.5 53,15.5 C53,15.5 -53,15.5 -53,15.5 C-53,15.5 -53,-15.5 -53,-15.5 C-53,-15.5 53,-15.5 53,-15.5z"></path></g></g><g class="arm" transform="matrix(-0.0776,0.997,-0.997,-0.0776,91.0003,317.0004)" opacity="1" style="user-select: none;"><g opacity="1" transform="matrix(-0.6743,0.7384,-0.7384,-0.6743,-102,-160.5)"><path fill="rgb(66,0,255)" fill-opacity="1" d="M0 0 M53,-15.5 C53,-15.5 53,15.5 53,15.5 C53,15.5 -53,15.5 -53,15.5 C-53,15.5 -53,-15.5 -53,-15.5 C-53,-15.5 53,-15.5 53,-15.5z"></path></g></g></g><g clip-path="url(#cp_89634xM8)" transform="matrix(1,0,0,1,0,0)" opacity="1"><g class="body" transform="matrix(1,0,0,1,200,400)" opacity="1" style="user-select: none;"><g opacity="1" transform="matrix(1,0,0,1,-20,-117.5)"><path fill="rgb(66,0,255)" fill-opacity="1" d="M0 0 M55,-105.5 C55,-105.5 55,105.5 55,105.5 C55,105.5 -55,105.5 -55,105.5 C-55,105.5 -55,-105.5 -55,-105.5 C-55,-105.5 55,-105.5 55,-105.5z"></path></g></g><g class="skirt" transform="matrix(1,0,0,1,200,400)" opacity="1" style="user-select: none;"><g opacity="1" transform="matrix(1,0,0,1,0,0)"><path fill="rgb(66,0,255)" fill-opacity="1" d="M0 0 M-68,-16 C-68,-16 -101,65 -101,65 C-101,65 -123,98 -98,94 C-73,90 45,91 51,91 C57,91 71,90 71,90 C71,90 40,-8 33,-13 C26,-18 -68,-16 -68,-16z"></path></g></g></g><g clip-path="url(#cp_hxh4KIJ8)" transform="matrix(1,0,0,1,0,0)" opacity="1"><g class="leg" transform="matrix(0.9994,-0.0349,0.0349,0.9994,200,400)" opacity="1" style="user-select: none;"><g opacity="1" transform="matrix(1,0,0,1,0,0)"><path fill="rgb(66,0,255)" fill-opacity="1" d="M0 0 M-30,66 C-30,66 -76,82 -76,82 C-76,82 -84,248 -84,248 C-84,248 -120,274 -120,274 C-120,274 -92,306 -92,306 C-92,306 -34,308 -34,308 C-34,308 -30,66 -30,66z"></path></g></g><g class="leg2" transform="matrix(1,0,0,1,200,400)" opacity="1" style="user-select: none;"><g opacity="1" transform="matrix(1,0,0,1,0,0)"><path fill="rgb(66,0,255)" fill-opacity="1" d="M0 0 M18,70 C18,70 -10,82 -10,82 C-10,82 -44,310 -10,310 C24,310 68,312 74,312 C80,312 38,280 38,280 C38,280 24,252 24,246 C24,240 18,70 18,70z"></path></g></g></g></g></g></svg>
