<svg xmlns="http://www.w3.org/2000/svg" viewBox="0 0 850 1550" width="850" height="1550" preserveAspectRatio="xMidYMid meet" style="width: 100%; height: 100%;"><defs><clipPath id="animationMask_RIKuAqAWHf"><rect width="850" height="1550" x="0" y="0"></rect></clipPath><clipPath id="cp_qSFGmdBk"><path d="M0,0 L58,0 L58,136 L0,136z"></path></clipPath><clipPath id="cp_DveZ1DrC"><path d="M0,0 L55,0 L55,256 L0,256z"></path></clipPath><clipPath id="cp_IViJkIVS"><path d="M0,0 L79,0 L79,220 L0,220z"></path></clipPath></defs><g clip-path="url(#animationMask_RIKuAqAWHf)"><g class="palm_Comp" clip-path="url(#cp_qSFGmdBk)" transform="matrix(-1,0,0,1,310.103,593.986)" opacity="1"><g class="palm_skin" transform="matrix(0.9983,0,0,0.9817,0,-1)" opacity="1" style="user-select: none;"><path fill="rgb(190,149,109)" fill-opacity="1" d="M0 0 M59,70.199 C52.4,59.766 47.4,48.949 44,37.75 C44,37.75 28.4,16.75 28.4,16.75 C28.4,16.75 28.1,16.75 28.1,16.75 C28.1,16.75 28.1,16.449 28.1,16.449 C16.5,-2.5509999999999984 7.3,-2.5509999999999984 0.5,16.449 C0.5,16.449 0.5,16.75 0.5,16.75 C0.5,16.75 0.5,27.55 0.5,27.55 C0.5,27.55 3.2,81.3 3.2,81.3 C3.2,81.3 22.4,109.5 22.4,109.5 C22.4,109.5 33.5,113.399 33.5,113.399 C33.5,113.399 42.5,129 42.5,129 C46.1,126 46.6,120.199 44,111.599 C44,111.599 50,120.3 50,120.3 C55.8,112.3 49.8,97 32,74.399 C30.6,64 30.2,54.083 30.8,44.649 C40.8,62.682 50.2,71.199 59,70.199z"></path></g></g><g class="arm_Comp" clip-path="url(#cp_DveZ1DrC)" transform="matrix(1,0,0,1,279.631,366.12)" opacity="1"><g class="arm_skin" transform="matrix(-1,0,0,1,0.02,0.205)" opacity="1" style="user-select: none;"><path fill="rgb(190,149,109)" fill-opacity="1" d="M0 0 M-1.015,60.583 C-1.015,60.583 -2.015,14.083 -2.015,14.083 C-22.182000000000002,-5.749999999999998 -38.215,-4.301000000000002 -48.116,18.433 C-41.949,66.799 -40.317,79.95500000000001 -38.465,113.733 C-36.61300000000001,147.511 -26.613,239.011 -25.866,244.683 C-17.113,242.511 -14.982,245.716 -4.015,242.083 C-4.015,242.083 -1.015,60.583 -1.015,60.583z"></path></g><g class="arm_shirt" transform="matrix(-1,0,0,1,0.02,0.205)" opacity="1" style="user-select: none;"><path fill="rgb(233,130,146)" fill-opacity="1" d="M0 0 M-47.945,21.115 C-47.945,21.115 -48.007,19.116 -48.007,19.116 C-45.471999999999994,6.462999999999999 -38.764,0.298 -27.882,0.622 C-17.998,1.01 -8.824,3.8550000000000004 -1.36,13.157 C-1.36,13.157 -0.529,48.253 -0.529,48.253 C-0.529,48.253 -42.808,55.47 -42.808,55.47 C-42.808,55.47 -47.945,21.115 -47.945,21.115z"></path></g><g class="arm_shirt_p80" transform="matrix(-1,0,0,1,-1.48,40.705)" opacity="1" style="user-select: none;"><path fill="rgb(255,223,223)" fill-opacity="1" d="M0 0 M-46.982,44.175 C-46.982,44.175 -52.5,10.432 -52.5,10.432 C-38.282,2.3130000000000006 -26.226999999999997,-0.02300000000000013 -1.336,1.426 C-1.336,1.426 -1.701,40.76 -1.701,40.76 C-17.375,39.754 -25.467,36.891999999999996 -46.982,44.175z"></path></g></g><g class="shoulder_Comp" clip-path="url(#cp_IViJkIVS)" transform="matrix(1,0,0,1,279,187)" opacity="1"><g class="shoulder_skin" transform="matrix(1,0,0,1,1.025,0.127)" opacity="1" style="user-select: none;"><path fill="rgb(190,149,109)" fill-opacity="1" d="M0 0 M3.975,21.986 C3.975,21.986 0.375,196.937 0.375,196.937 C11.975,222.97000000000003 27.175,224.154 45.975,200.487 C48.842,156.587 51.225,123.237 55.125,104.437 C58.992,85.604 58.1,44.129000000000005 49.225,12.486 C35.225,4.386000000000001 15.43,-0.4939999999999998 3.975,21.986z"></path></g><g class="shoulder_shirt" transform="matrix(1,0,0,1,-0.975,0.127)" opacity="1" style="user-select: none;"><path fill="rgb(233,130,146)" fill-opacity="1" d="M0 0 M42.225,4.636 C29.225,-1.6139999999999999 15.225000000000001,0.8860000000000028 2.825,18.036 C2.825,18.036 2.475,194.936 2.475,194.936 C5.275,205.669 10.825,212.85299999999998 19.125,216.486 C28.825,220.51899999999998 38.041,216.21900000000002 46.775,203.586 C46.775,203.586 62.125,58.886 62.125,58.886 C59.291,45.053000000000004 55.225,10.886 42.225,4.636z"></path></g></g></g></svg>
